<svg height="481.19974" viewBox="0 0 516.4043 481.19974" width="516.4043" xmlns="http://www.w3.org/2000/svg"><g fill="#005ca9" transform="translate(-220.48 -664.58)"><path d="m270.8 936.33-3.43-3.16c1.5-1.57 2.58-3.65 2.67-5.54.1-2.17-.7-3.27-2.07-3.34-1.45-.07-1.98 1.22-2.9 3.19l-1.41 2.93c-1.08 2.34-3.15 4.51-6.49 4.35-3.81-.18-6.7-3.73-6.47-8.52.13-2.65 1.3-5.37 3.37-7.26l3.15 2.78c-1.23 1.46-1.94 2.87-2.03 4.69-.08 1.79.61 2.97 1.93 3.03 1.41.07 2-1.41 2.89-3.38l1.33-2.88c1.27-2.76 3.22-4.42 6.47-4.27 3.82.18 6.98 3.52 6.72 9-.15 3-1.43 6.13-3.73 8.38z"/><path d="m249.48 903.49-4-6.69 3.72-2.23 3.19 7.04zm2.86 5.28 2.13-14.27 4.32.64-1.36 9.12 4.57.68 1.16-7.77 4.32.64-1.16 7.77 5.25.78 1.41-9.47 4.32.64-2.18 14.62z"/><path d="m266.99 888.65c-7.41-1.89-10.45-7.89-9.01-13.53.74-2.88 2.69-4.86 4.61-5.97l2.56 3.49c-1.33.85-2.37 1.87-2.78 3.49-.78 3.06 1.3 6.17 5.77 7.31 4.59 1.17 7.8-.28 8.63-3.54.47-1.83-.06-3.51-.97-4.9l3.85-1.85c1.68 2.4 2.17 5.15 1.43 8.04-1.44 5.65-6.57 9.38-14.09 7.46z"/><path d="m274.28 864.3-11.56-4.38 1.85-4.87 12.06 4.57c4.22 1.6 6.18.82 7.09-1.59.92-2.42-.01-4.37-4.23-5.97l-12.06-4.57 1.78-4.7 11.56 4.38c7.23 2.74 9.27 6.88 7.15 12.45-2.11 5.59-6.41 7.43-13.64 4.68z"/><path d="m273.78 831.74 3.83-7.36c2.25-4.34 5.61-7.11 10.47-4.58 4.7 2.44 4.87 7.05 2.62 11.38l-1.43 2.74 7.36 3.82-2.4 4.62zm13.05-2.09c1.26-2.43.9-4.28-1.11-5.32-2.02-1.05-3.38-.1-4.64 2.34l-1.23 2.36 5.75 2.99zm2.2 1.74-1.3-4.73 14.92-.53-2.69 5.17z"/><path d="m287.32 806.77 2.82-4.38 19.36 12.48-2.82 4.38z"/><path d="m301.86 792.93-3.84 5.04-3.47-2.65 10.84-14.22 3.47 2.65-3.84 5.04 14.84 11.32-3.16 4.14z"/><path d="m310.99 774.31 9.85-10.56 3.2 2.98-6.29 6.75 3.39 3.16 5.36-5.75 3.2 2.98-5.36 5.75 3.88 3.62 6.53-7.01 3.2 2.98-10.09 10.82zm.63-5.98.5-7.79 4.34.27-1.36 7.61z"/><path d="m349.66 763.89.18-4.66c2.17.12 4.45-.4 5.95-1.56 1.72-1.33 2.04-2.66 1.2-3.74-.89-1.15-2.21-.71-4.31-.13l-3.15.82c-2.48.7-5.47.53-7.52-2.12-2.34-3.02-1.51-7.52 2.28-10.45 2.1-1.63 4.93-2.5 7.71-2.15l-.07 4.21c-1.91.01-3.44.39-4.89 1.5-1.42 1.1-1.86 2.39-1.06 3.43.86 1.12 2.37.6 4.45 0l3.05-.86c2.92-.82 5.46-.42 7.45 2.16 2.34 3.02 1.85 7.6-2.49 10.96-2.37 1.84-5.58 2.89-8.78 2.59z"/><path d="m363.98 741.77c-3.89-6.45-2.48-12.34 2.84-15.55s11.2-1.68 15.08 4.74c3.89 6.45 2.58 12.51-2.74 15.72-5.32 3.2-11.29 1.53-15.18-4.91zm13.35-8.06c-2.39-3.96-5.49-5.27-8.18-3.64-2.69 1.62-2.98 4.98-.59 8.94s5.6 5.44 8.29 3.81c2.68-1.62 2.87-5.15.48-9.11z"/><path d="m388.63 727.37c-3.22-6.93-.51-13.08 4.77-15.53 2.7-1.26 5.47-1 7.54-.21l-1.08 4.19c-1.5-.49-2.95-.65-4.46.05-2.86 1.33-3.95 4.91-2 9.09 2 4.29 5.15 5.86 8.21 4.44 1.72-.8 2.67-2.27 3.18-3.85l3.87 1.81c-.8 2.82-2.62 4.94-5.32 6.2-5.31 2.46-11.44.85-14.71-6.19z"/><path d="m409 705.69 4.89-1.8 7.94 21.63-4.89 1.8z"/><path d="m429.73 698.83 6.02-1.6 12.9 20.41-5.33 1.41-5.9-10.5c-1.21-2.06-2.5-4.54-3.71-6.7l-.14.04c.08 2.49.18 5.26.15 7.64l.06 12.05-5.14 1.37zm1.08 13.68 10.71-2.84 1.04 3.91-10.71 2.84z"/><path d="m451.44 693.58 5.15-.78 2.81 18.46 8.99-1.37.66 4.32-14.14 2.15z"/><path d="m473.87 690.5 14.41-.92.28 4.36-9.21.59.29 4.62 7.84-.5.28 4.36-7.84.5.34 5.3 9.56-.61.28 4.36-14.76.94z"/><path d="m511.59 758.04c-.57-1.16-2.39-2.07-3.91-2.22-1.58-.16-2.57-.27-2.57-.27-1.81-.48-40.51.14-49.59 6.01-.04.03-.05.05-.08.08-.96-6.16-3.06-13.58-13.69-15.84-7.48-1.59-23.57 5.55-18.17 21.61.92 2.74 2.82 4.59 5.56 6.07 1.37.73 3.57.38 5.21 4.61.47 1.23 1.37 1.09 2.17.83.6-.19.76-.12 1.73.66.79.64 1.38.25 1.38.25s.37.41.89.34c.4-.06 1.27-.28 1.5-.09 3.07 2.49 6.64-1.4 7.99-3.84 1.36 4.11 4.97 15.03 4.97 15.03-1.19-1.01-13.38-4.52-19.23 2.01-5.08 5.67-8.79 13.25-13.09 26.35-1.14 3.49-3.43 5.34-7.52 6.84-6.63 2.43-2.81 5.51-1.08 5.85 4.09.81 13.62.35 15.55-.61 2.46-1.23.63-6.91 3.36-10.41 2.44-3.14 4.41-5.69 6.07-7.82-.11 4.15.12 6.28-2.1 11.71-2 4.89-8.05 7.47-9.85 9.78-3.19 4.1 4.11 4.44 6.05 3.78 4.85-1.66 8.21-1.57 10.35-2.79 2.84-1.62.8-5.96 1.7-7.73 2.5-4.93 11.06-15.71 12.06-17.42.16-.28.27-.5.35-.7 6.2 1.93 13.08 2.44 15.61 2.14 14.13-1.69 17.3-11.68 15.85-19.54-1.34-7.27-5.8-11.73-7.16-13.84-3.73-5.82-5.91-8.93-7.15-10.6 4.07-.98 26.58-7.17 26.66-6.98.85 1.84 2.75 2.25 3.45 2.75 1.45.79 2.29-.45 1.71-.82-1.12-.71-1.4-1.51-1.4-1.51 1.9-.04 3.72.16 4.9.35 1.57.26 2.6-3.18 1.52-4.02z"/><path clip-rule="evenodd" d="m711.79 893.83c-3.61-19.4-21.72-31.4-31.06-35.37-6.38-2.71-9.2-3.26-10.21-3.56-1.39-.42-2.38-.75-3.11-1.02.65-4.2 5.57-4.53 8.48-10.55 8.23-17.06-8.75-29.07-21.37-26.3-5.97 1.31-10.1 3.44-11.01 7.99-.49 2.48-2.39 2.56-5.44 5.81-1.01 1.07 1.21 2.79 1.57 3.5.1.2-.55 1.11-.78 2.14-.23 1.06-.02.85-.07.99 0 0-.61.99-.6 2.41 0 0-1.52 2.7.06 5.85.01.05-.02.08-.01.13.24.88 1.97 2.47 2.57 6.41.08.53.14.82-2.33.04-.56-.18-23.42-6.9-25.96-8.61-2.84-1.91-25.48-26.48-27.97-31.29-1.37-2.64-2.8-4.39-3.52-4.35-5.33.33 3.89 9.96-1.3 6.67-1.33-.84-5.32-3.64-5.61-3.87-1-.81-.76-.42-1.49-1.58-.65-1.04-1.08-1.82-1.74-2.27-.59-.4-.93-.53-1.34-.42-.83.22-.69.81-.9.86 0 0-.53-.01-.91.08-1.34.32-.34 3.72.08 5.31.09.34 3.47 8.91 4.83 10.34 5.77 3.99 11.49 7.35 11.67 7.57 6.23 7.23 13.55 16.27 20.08 23.15 5.2 5.47 28.96 19.28 29.76 19.75 1.56.93 4.04 6.01.48 42.27-1.34 13.66-11.07 42.68-6.46 57.68 3.01 9.79 6.46 16.45 9.9 42.81.78 5.95-3.85 9.56-10.46 14.35-2.59 1.87-9.85 6.35-10.58 7.02-1.22 1.11-.09 2.89 1.5 3.54 1.54.64 4.44 2.28 6.1 2.59 2.76.51 7.02.18 11.26-2.2 4.82-2.71 5.24-3.15 8.08-4.86 3.26-1.97 7.21-2.59 8.23-5.93 1.35-4.42-2.38-10.78-2.01-13.66 2.7-20.77 6.3-31.05 1.06-43.78-1.05-2.55 7.58-30.28 8.25-26.56 1.33 7.33 1.86 29.06 2.09 45.23.1 7.07 5.8 32.16 7.62 41.16 2.82 13.94-20.63 24.97-15.48 29.06 1.16.92 4.04 2.29 6.98 2.75 3.21.49 5.83-.12 8.49-1.02 1.59-.54 4.24-3.55 4.78-4.22 4.99-6.2 3.46-4.48 7.4-8.91 3.4-3.83.95-10.42.52-13.88-.88-7.05-.13-8.92-.2-21.6-.08-14.7.88-18.88 1.7-24.3 3.68-24.29 5.95-37.52 7.09-47.85l.1-.59s1.76.64 2.54-.64c1.27-2.08 1.13-4.25 1.42-5.61s.85.39.85.39 1.24 3.32 1.21 4.4c-.06 1.72-1.12 3.59-1.95 5.98-.95 2.72 1.44 3.16 2.06 3.39.62.22 7.85-4.93 8.82-7.01s.94-4.86 1-6.34c.14-3.66-1.98-13.83-1.98-13.83 2.21-7.13 8.13-24.78 7.22-29.64zm-16.59 28.05c-.79 3.44-1.01.15-4.27 12.99l.36-1.84c.07-1.8.11-3.6.1-5.46-.03-15.9-12.17-49.7-4.8-42.62.04.04 8.87 6.18 10.58 10.88 1.35 3.67.83 13.82-1.97 26.05z" fill-rule="evenodd"/><path d="m398.95 959.81c-2.87-2.39-12.32-15.49-18.56-20.64-4.23-4.35-5.18-6.65-8.62-11.23-11.32-15.07-13.76-15.94-21.7-17.28-1.61-1.08-1.08-2.31-.92-2.38 10.34-3.85 6.86-12.79 6.78-13.15-.47-1.96.86-2.83.83-4.64-.06-2.95-.63-5.38-1.48-7.44.4-1.36.56-3.33-.91-5.2-5.47-6.98-19.29-7.33-26.5-2.36-5.78 3.98-2.38 6.76-4.17 12.41-1.06 3.35.01 6.46 2.34 8.88.29 1.87 5.97 5.48 4.85 9.54-1.14 4.15-7.77 5-7.7 5.01-.77.2-1.47.44-2.04.77-10.58 6.05-20.85 14.82-22.11 24.48.58 7.78 12.63 19.01 20.39 25.07 1.12 13.26 9.54 33.57 9.92 34.36 1.15 2.43-2.38-1.82-10.85-4.7-4.1-1.4-9.53-7.01-10.71-.41-.49 2.75.69 7.53-1.9 13.44-1.98 4.53.32 11.74 5.3 11.6 3.61-.11 5.74-11.08 5.74-11.08s17.4 8.67 25.7 5.78c4.87-1.69 5.96-21.09 1.18-38.39-1.68-6.07 3.12 9.86 14.76 23.9 2.57 3.1.31 5.53 2.01 17.1.63 4.3.67 5.49.56 7.43-.31 5.6-5.65 12.21 6.55 15.35 12.45 3.21 11.45 6.11 19.23.89 3.5-2.34-10.73-3.79-13.51-12.22-.08-.23-.29-1.31-.32-1.82-.34-6.65 2.68-22 1.78-27.35-4.43-26.31-15.5-38.47-16.9-44.62-.12-18.35-1.32-24.11.41-19.98.37.87 4.16 7.29 8 12.16l-.07.03c.4.52.9 1.08 1.44 1.65 1.18 1.36 2.32 2.47 3.33 3.16 7.66 6.71 19.86 14.72 21.5 16.46 0 0 .91 8.09 4.25 7.49 2.94-.53 17.63-6.93 17.35-8.56-.55-3.16-14.71-3.08-15.23-3.51zm-79.68-10.19c-2.23-4.26-8.27-12.18-7.85-13.48 3.37-5.45 6.99-7.15 8.08-6.79.92.29-.23 20.27-.23 20.27z"/><path d="m641.73 1108.6c-.63-.33-9.25-3.52-16.86-15.69-3.42-5.47-28.99-52.86-32.48-62.11-6.92-18.31-60.88-51.22-63.2-53.12-1.61-1.32-1.41-4.5-.79-6.57 4.55-15.39 2.75-29.18 3.63-31.26 2.21-5.23 5.62-12.85 3.07-17.8l-5.58-8.8s28.58 10.32 35.22 8.89c5.69-1.23 34.45-20.97 35.96-21.82 3.99-2.04 13.54.95 23.19-9.57 3.63-3.96 1-5.33.34-4.63.14-.3-1.63-1.86-3.32-.89-2.3 1.32-10.24 3.61-8.78 2.52 5.77-4.32 1.77-5.62 1.77-5.62-2.52 2.09-13.98 4.98-16.21 6.81-2.61 2.15-4.33 3.98-5.66 4.72-7.05 3.9-18.84 9.69-30.78 12.35-2.42.54-25.21-14.34-38.4-16.36-7.11-1.09-9.63-.58-13.51.51-4.71 1.33-4.33-5.48-.84-7.11 1.82-.85 4.88-1.41 5.99-3.72 1.4-2.89-.26-5.39-.2-5.74.04-.33.25-.57-.19-1.62-.34-.8-.29-.38-.18-1.17.09-.69-.35-1.07-.55-1.73-.11-.35-.01-1.37.19-1.53 2.82-2.32 1.6-3.39 1.22-3.73-.8-.72-4.96-2.53-5.33-5.37-.58-4.5-2.09-6.74-2.81-8.84-.29-.83-.76-5.97-3.03-8.05-2.78-2.53-8.61-5.66-21.2-2.23-4.04 1.1-3.3 3.04-13.42 4.92-12.12 2.25-18.79 20.25-17.7 27.75.88 6.04 6.07 3.11 5.85 5.79-.35 4.17-.77 11 8.09 13.65 1.9.57 13.5-1.29 17.92-.51 0 0 3.58.29 1.79 3.88-.89 1.78-12.5 6.39-15.38 7.59-7.56 3.15-27.1 35.21-33.04 38.22-5.12 2.6-8.13 4.46-9.85 5.78-8.05 5.04-15.88 11.23-20.19 11.05-5.76-.37-10.45 2.42-14.3 10.98-1.13 2.52-.48 3.84 1.62 4.37.78.77 1.97 1.92 3.55 1.83 1.74 1.59 3.67.58 5.12-.21 4.53-2.46 5.52-4.39 7.32-5.1 4.41-1.45 30.48-11.51 36.26-15.99 8.79-4.82 26.52-23 30.56-23.22 3.55-.19 12.54 7.8 9.72 23.13-.96 5.23-7.51 14.69-11.14 20.19-7.2 10.91-1.62 20.42-3.05 22.74-7.45 12.16-16.68 28.4-32.06 42.29-6 3.91-18.69 4.8-25.38 6.77-15.41 4.52-31.81 15.57-43.5 22.12-3.88 2.17-7.6-2.48-12.46-3.04-4.68-.54-5.3 6.8-7.79 13.49-.77 2.05-1.11 3.01-4.83 11.24-1.45 3.21-5.31 13.11-1.43 17.21 3.54 4.93 11.98-10.52 18.47-18.03 3.45-3.99 5.58-5.3 13.04-7.02 4.78-1.11 42.51-11.33 67.43-16.81.61-.11 1.27-.25 1.98-.44 32.39-8.42 65.93-50.68 66.38-50.48l54.97 27.24c5.56 2.98 5.59 13.69 12.15 25.9 3.95 7.36 9.72 13.8 33.34 36.85 3.01 2.94.54 7.86 1.91 12.42 1.47 4.89 3.77 5 8.18 4.63 4.1-.38 7.78-1 11.88-1.25 5.24-.32 3.83.24 9.93 1.14 2.98.44 9.76 1.41 14.54-3.34 8.59-8.56-9.08-4.24-17.16-8.45z"/><path d="m582.06 1084.76c-.84-1.65-2.86-2.31-4.5-1.47l.02-.06c-23.49 11.93-49.83 18.26-76.36 18.26-29.56 0-58.64-7.75-84.11-22.41-1.6-.93-3.66-.37-4.58 1.23s-.37 3.65 1.23 4.58c26.49 15.25 56.73 23.3 87.46 23.3 27.59 0 55.01-6.57 79.45-18.98 1.58-.87 2.21-2.83 1.39-4.45z"/><path d="m344.34 864.82c-.46 0-.93-.1-1.38-.3-1.69-.76-2.43-2.75-1.66-4.44 15.12-33.29 39.84-60.66 71.47-79.14 1.6-.94 3.65-.39 4.58 1.2.93 1.6.4 3.65-1.2 4.58-30.43 17.78-54.2 44.11-68.75 76.13-.57 1.24-1.78 1.97-3.06 1.97z"/><path d="m630.26 821.94c-.93 0-1.85-.38-2.51-1.13-26.67-30.15-63.18-49.82-102.83-55.39-1.83-.26-3.11-1.95-2.85-3.79.26-1.83 1.96-3.1 3.78-2.85 41.22 5.79 79.19 26.24 106.91 57.59 1.23 1.39 1.1 3.5-.29 4.73-.62.56-1.42.84-2.21.84z"/></g></svg>